<?xml version="1.0" encoding="UTF-8" standalone="no"?>
<!-- Created with Inkscape (http://www.inkscape.org/) -->
<svg
   xmlns:dc="http://purl.org/dc/elements/1.1/"
   xmlns:cc="http://web.resource.org/cc/"
   xmlns:rdf="http://www.w3.org/1999/02/22-rdf-syntax-ns#"
   xmlns:svg="http://www.w3.org/2000/svg"
   xmlns="http://www.w3.org/2000/svg"
   xmlns:sodipodi="http://sodipodi.sourceforge.net/DTD/sodipodi-0.dtd"
   xmlns:inkscape="http://www.inkscape.org/namespaces/inkscape"
   width="48"
   height="48"
   id="svg2"
   sodipodi:version="0.32"
   inkscape:version="0.45"
   version="1.0"
   sodipodi:docbase="/home/nat/projects/jmock-website/assets"
   sodipodi:docname="icon.svg"
   inkscape:output_extension="org.inkscape.output.svg.inkscape"
   inkscape:export-filename="/home/nat/projects/jmock-website/assets/favicon.ico"
   inkscape:export-xdpi="12"
   inkscape:export-ydpi="12"
   sodipodi:modified="true">
  <defs
     id="defs4" />
  <sodipodi:namedview
     id="base"
     pagecolor="black"
     bordercolor="#666666"
     borderopacity="1.0"
     gridtolerance="10000"
     guidetolerance="10"
     objecttolerance="10"
     inkscape:pageopacity="0"
     inkscape:pageshadow="2"
     inkscape:zoom="3.833557"
     inkscape:cx="82.02272"
     inkscape:cy="-4.1636975"
     inkscape:document-units="px"
     inkscape:current-layer="layer1"
     width="48px"
     height="48px"
     showborder="true"
     inkscape:window-width="1024"
     inkscape:window-height="718"
     inkscape:window-x="0"
     inkscape:window-y="25" />
  <metadata
     id="metadata7">
    <rdf:RDF>
      <cc:Work
         rdf:about="">
        <dc:format>image/svg+xml</dc:format>
        <dc:type
           rdf:resource="http://purl.org/dc/dcmitype/StillImage" />
      </cc:Work>
    </rdf:RDF>
  </metadata>
  <g
     inkscape:label="Layer 1"
     inkscape:groupmode="layer"
     id="layer1"
     transform="translate(-92.493718,-275.63161)">
    <g
       id="g2163"
       transform="matrix(0.2696417,0,0,0.2696417,67.269751,201.04208)">
      <path
         transform="matrix(0.5397766,0.2684277,-0.5092635,1.0240692,168.83072,264.27298)"
         d="M 160.68627 76.139168 A 73.560921 71.474091 0 1 1  13.56443,76.139168 A 73.560921 71.474091 0 1 1  160.68627 76.139168 z"
         sodipodi:ry="71.474091"
         sodipodi:rx="73.560921"
         sodipodi:cy="76.139168"
         sodipodi:cx="87.125351"
         id="path2167"
         style="color:#000000;fill:#191970;fill-opacity:1;fill-rule:nonzero;stroke:none;stroke-width:5;stroke-linecap:butt;stroke-linejoin:miter;marker:none;marker-start:none;marker-mid:none;marker-end:none;stroke-miterlimit:4;stroke-dasharray:none;stroke-dashoffset:0;stroke-opacity:1;visibility:visible;display:inline;overflow:visible;enable-background:accumulate"
         sodipodi:type="arc" />
      <text
         id="text1872"
         y="402.92212"
         x="162.32492"
         style="font-size:120px;font-style:normal;font-weight:normal;fill:#ffffff;fill-opacity:1;stroke:none;stroke-width:1px;stroke-linecap:butt;stroke-linejoin:miter;stroke-opacity:1;font-family:Bitstream Vera Serif"
         xml:space="preserve"><tspan
           style="font-style:italic;font-weight:bold;fill:#ffffff;font-family:Bitstream Charter"
           y="402.92212"
           x="162.32492"
           id="tspan1874"
           sodipodi:role="line">j<tspan
   id="tspan2042"
   style="font-style:normal;font-weight:normal;fill:#ffffff" /></tspan></text>
      <path
         id="path2033"
         d="M 262.625,296.03125 C 244.03338,297.02386 226.4516,304.2438 209.1875,310.71875 C 199.42366,314.89751 189.35046,318.98523 180.78125,325.46875 C 181.08397,329.15292 184.01844,328.48107 189.41786,326.41559 C 210.19647,317.50002 231.518,307.9668 254.3125,306.03125 C 258.64773,305.39795 253.70986,309.28193 252.90625,310.3125 C 229.94527,330.21086 201.81788,342.42418 175.21875,356.53125 C 156.57449,365.19706 137.94041,375.46085 118.03125,380.53125 C 115.58826,380.41666 110.81665,383.25452 109.3125,380.875 C 118.07804,367.44341 132.5982,359.37317 145.53125,350.5625 C 152.88768,345.55438 161.64258,342.70588 168.81297,337.66445 C 175.24382,330.84609 161.7419,336.70606 158.95377,338.54449 C 137.35631,349.10369 115.03421,360.80049 98.84375,378.71875 C 95.536588,382.06863 92.990859,389.62415 99.03125,391.65625 C 107.31238,392.87614 115.83803,389.21457 123.67968,386.69414 C 164.84651,369.62204 204.45788,348.81053 242.5958,325.779 C 252.08717,319.21937 263.21778,313.47063 269.34375,303.40625 C 271.0564,299.41068 266.73133,294.94084 262.625,296.03125 z "
         style="fill:#ff0000;fill-opacity:1;fill-rule:nonzero;stroke:none;stroke-width:1px;stroke-linecap:butt;stroke-linejoin:miter;stroke-opacity:1" />
      <path
         id="path2108"
         d="M 188.36493,316.16212 C 183.08493,316.16212 179.12493,320.12212 179.12493,325.16212 C 179.12493,329.60211 182.36493,332.84212 187.28493,332.84212 C 192.44492,332.84212 196.40493,328.88211 196.40493,323.84212 C 196.40493,319.16212 193.40492,316.16212 188.36493,316.16212"
         style="font-size:120px;font-style:normal;font-weight:normal;fill:#ffffff;fill-opacity:1;stroke:none;stroke-width:1px;stroke-linecap:butt;stroke-linejoin:miter;stroke-opacity:1;font-family:Bitstream Vera Serif" />
    </g>
  </g>
</svg>
